<?xml version="1.0" encoding="UTF-8"?>
<svg version="1.1" xmlns="http://www.w3.org/2000/svg" width="500" height="500">
<path d="M0 0 C0.76704101 -0.00226556 1.53408201 -0.00453111 2.32436669 -0.00686532 C4.89058642 -0.01318754 7.45675309 -0.0123771 10.02297974 -0.0115509 C11.86455351 -0.01454349 13.70612665 -0.01794625 15.54769897 -0.02172852 C20.54771679 -0.03056228 25.5477175 -0.03290636 30.54774237 -0.0335443 C33.67204943 -0.03425513 36.79635213 -0.03639005 39.92065811 -0.03904152 C50.82163011 -0.04829266 61.72258988 -0.05237667 72.62356567 -0.05158997 C82.78289879 -0.05098913 92.94217881 -0.06154269 103.10149848 -0.07733363 C111.82605517 -0.09041097 120.5505945 -0.09577378 129.27516091 -0.09513456 C134.48496182 -0.09487964 139.69471554 -0.09772746 144.90450668 -0.10831261 C149.80465614 -0.11799688 154.70471331 -0.11807047 159.60486603 -0.11079597 C161.40154531 -0.10975057 163.19823034 -0.11211042 164.99489975 -0.11815643 C167.45113514 -0.12588553 169.9070526 -0.12122554 172.36328125 -0.11352539 C173.07097904 -0.11866895 173.77867683 -0.12381252 174.50782001 -0.12911195 C184.66863899 -0.05892227 190.57126354 3.87008811 197.80862427 10.38371277 C199.30862427 12.13371277 199.30862427 12.13371277 199.30862427 14.13371277 C199.96862427 14.13371277 200.62862427 14.13371277 201.30862427 14.13371277 C201.30862427 14.79371277 201.30862427 15.45371277 201.30862427 16.13371277 C201.96862427 16.13371277 202.62862427 16.13371277 203.30862427 16.13371277 C204.89456177 17.77824402 204.89456177 17.77824402 206.68362427 19.94621277 C208.54428709 22.19622133 210.1773513 24.03721562 212.53518677 25.77043152 C213.41303833 26.44525574 213.41303833 26.44525574 214.30862427 27.13371277 C214.30862427 27.79371277 214.30862427 28.45371277 214.30862427 29.13371277 C214.96862427 29.13371277 215.62862427 29.13371277 216.30862427 29.13371277 C218.93362427 31.50871277 218.93362427 31.50871277 221.30862427 34.13371277 C221.30862427 34.79371277 221.30862427 35.45371277 221.30862427 36.13371277 C221.96862427 36.13371277 222.62862427 36.13371277 223.30862427 36.13371277 C223.30862427 36.79371277 223.30862427 37.45371277 223.30862427 38.13371277 C223.96862427 38.13371277 224.62862427 38.13371277 225.30862427 38.13371277 C225.30862427 38.79371277 225.30862427 39.45371277 225.30862427 40.13371277 C225.96862427 40.13371277 226.62862427 40.13371277 227.30862427 40.13371277 C227.30862427 40.79371277 227.30862427 41.45371277 227.30862427 42.13371277 C227.96862427 42.13371277 228.62862427 42.13371277 229.30862427 42.13371277 C229.30862427 42.79371277 229.30862427 43.45371277 229.30862427 44.13371277 C229.96862427 44.13371277 230.62862427 44.13371277 231.30862427 44.13371277 C233.93362427 46.50871277 233.93362427 46.50871277 236.30862427 49.13371277 C236.30862427 49.79371277 236.30862427 50.45371277 236.30862427 51.13371277 C236.96862427 51.13371277 237.62862427 51.13371277 238.30862427 51.13371277 C238.30862427 51.79371277 238.30862427 52.45371277 238.30862427 53.13371277 C238.96862427 53.13371277 239.62862427 53.13371277 240.30862427 53.13371277 C240.30862427 53.79371277 240.30862427 54.45371277 240.30862427 55.13371277 C240.96862427 55.13371277 241.62862427 55.13371277 242.30862427 55.13371277 C242.30862427 55.79371277 242.30862427 56.45371277 242.30862427 57.13371277 C242.96862427 57.13371277 243.62862427 57.13371277 244.30862427 57.13371277 C246.93362427 59.50871277 246.93362427 59.50871277 249.30862427 62.13371277 C249.30862427 62.79371277 249.30862427 63.45371277 249.30862427 64.13371277 C249.96862427 64.13371277 250.62862427 64.13371277 251.30862427 64.13371277 C251.30862427 64.79371277 251.30862427 65.45371277 251.30862427 66.13371277 C251.96862427 66.13371277 252.62862427 66.13371277 253.30862427 66.13371277 C253.30862427 66.79371277 253.30862427 67.45371277 253.30862427 68.13371277 C253.96862427 68.13371277 254.62862427 68.13371277 255.30862427 68.13371277 C255.30862427 68.79371277 255.30862427 69.45371277 255.30862427 70.13371277 C255.89514771 70.39797058 256.48167114 70.66222839 257.08596802 70.93449402 C259.39442088 72.18000373 260.99949558 73.49145497 262.87112427 75.32121277 C263.73930786 76.1468573 263.73930786 76.1468573 264.62503052 76.98918152 C268.34369307 81.72594658 269.75107531 85.89159523 269.10061646 91.88113308 C268.96200195 92.9271549 268.96200195 92.9271549 268.82058716 93.99430847 C268.65118633 95.56575071 268.48457849 97.13749585 268.32035828 98.70948792 C268.22988283 99.53785534 268.13940739 100.36622276 268.04619026 101.21969223 C262.88562735 146.61781718 262.88562735 146.61781718 279.49842834 187.25054932 C291.17734659 200.86272617 305.03460496 212.87012937 319.37867737 223.60603333 C319.97222739 224.06011661 320.56577742 224.51419989 321.1773138 224.98204327 C322.76844748 226.19194888 324.38009847 227.37474075 325.99319458 228.5552063 C329.23022457 232.16002437 329.20653017 234.32750185 329.30862427 239.13371277 C327.80579629 243.1913483 326.92703686 244.72143771 323.30862427 247.13371277 C320.93577576 247.41218567 320.93577576 247.41218567 318.10281372 247.45256042 C316.51150383 247.48236496 316.51150383 247.48236496 314.88804626 247.51277161 C313.17230659 247.53009842 313.17230659 247.53009842 311.42190552 247.54777527 C310.24975998 247.56714142 309.07761444 247.58650757 307.86994934 247.60646057 C304.12041536 247.66631474 300.37085079 247.7126656 296.62112427 247.75871277 C294.08139722 247.79688713 291.54168319 247.83593853 289.00198364 247.87590027 C282.7709793 247.97202112 276.53989675 248.05705162 270.30862427 248.13371277 C270.30642443 248.95755589 270.30642443 248.95755589 270.30418015 249.7980423 C270.26706387 263.18670426 270.20773479 276.57511092 270.12472153 289.96356964 C270.08524286 296.43826296 270.05305604 302.91282018 270.03762817 309.38761902 C270.02246454 315.6382723 269.98802319 321.88855145 269.94031525 328.13903809 C269.92549861 330.52156316 269.91758309 332.90414165 269.91674042 335.28671265 C269.91436999 338.62869474 269.88728204 341.96964357 269.85452271 345.31144714 C269.85955307 346.2925647 269.86458344 347.27368225 269.86976624 348.28453064 C269.76254663 355.37243344 268.38031852 361.07940547 263.23831177 366.19230652 C262.56026489 366.64734558 261.88221802 367.10238464 261.18362427 367.57121277 C260.50042114 368.04429871 259.81721802 368.51738464 259.11331177 369.00480652 C256.14692691 370.86040224 254.41332056 371.26106209 250.93344784 371.27352047 C250.00843281 371.27921171 249.08341778 371.28490295 248.13037199 371.29076666 C246.59583076 371.29253647 246.59583076 371.29253647 245.0302887 371.29434204 C243.94870501 371.29942986 242.86712133 371.30451768 241.75276238 371.30975968 C238.10398525 371.32554048 234.45522801 371.33402408 230.806427 371.342453 C228.20007703 371.35198699 225.59372834 371.36187795 222.98738098 371.37210083 C215.14681025 371.40140052 207.30622786 371.42057722 199.4656218 371.43749318 C197.25095236 371.44228761 195.03628342 371.44727102 192.8216145 371.4522984 C179.06921649 371.4832736 165.31681427 371.50995989 151.56439114 371.52671719 C148.37781708 371.53066672 145.19124309 371.5346697 142.00466919 371.53874207 C140.81665159 371.54025461 140.81665159 371.54025461 139.60463364 371.5417977 C126.78115653 371.55879611 113.95787269 371.59989432 101.13448989 371.65076505 C87.96860921 371.7025646 74.80282784 371.7316627 61.63684613 371.73891407 C54.24481826 371.7435739 46.85310665 371.75829887 39.46117973 371.79865837 C32.50489706 371.8365929 25.54916198 371.84394377 18.5927906 371.83065224 C16.040644 371.83070624 13.48847367 371.84102315 10.93641663 371.86240387 C7.44890767 371.89005752 3.96337055 371.88058646 0.47584534 371.86196899 C-0.5315671 371.87876392 -1.53897953 371.89555885 -2.57691962 371.91286272 C-9.71799779 371.81775383 -14.3047727 369.84496823 -19.69137573 365.13371277 C-23.97701455 360.3106115 -24.81561899 355.73539377 -24.82001019 349.45045948 C-24.82323463 348.28459145 -24.82645908 347.11872343 -24.82978123 345.91752607 C-24.82823263 344.63573978 -24.82668403 343.35395349 -24.8250885 342.0333252 C-24.82695642 340.65860325 -24.82925705 339.28388184 -24.83195382 337.90916127 C-24.83808081 334.12744248 -24.83793717 330.34574576 -24.83675945 326.56402314 C-24.83655566 322.48685179 -24.84207214 318.40968757 -24.84681702 314.33251953 C-24.85512953 306.34231202 -24.85787215 298.35211189 -24.85842939 290.36190043 C-24.85890436 283.86655262 -24.86095813 277.37120725 -24.86413002 270.87586021 C-24.87293896 252.46234805 -24.87754913 234.04884172 -24.87679955 215.63532744 C-24.87675959 214.64229704 -24.87671963 213.64926664 -24.87667847 212.62614441 C-24.87663759 211.63190188 -24.87659671 210.63765934 -24.87655459 209.61328825 C-24.87614826 193.50502865 -24.8857139 177.39679245 -24.89981683 161.28853963 C-24.91418169 144.75063638 -24.92108693 128.21274455 -24.92022306 111.67483491 C-24.91989108 102.38936672 -24.92263836 93.10392304 -24.93340111 83.81846046 C-24.94250764 75.9111168 -24.94468017 68.00380875 -24.93789168 60.09646211 C-24.93462699 56.06298868 -24.93456793 52.02958357 -24.94324493 47.99611664 C-24.9511133 44.30046892 -24.94967508 40.60494366 -24.9409608 36.90929892 C-24.93870214 34.94573445 -24.94625193 32.98216618 -24.95420045 31.0186165 C-24.88775898 13.98626628 -24.88775898 13.98626628 -19.81637573 7.75871277 C-19.32395386 7.13222839 -18.83153198 6.50574402 -18.32418823 5.86027527 C-12.88547918 0.10929584 -7.62739131 -0.01658589 0 0 Z M140.78787231 27.11198425 C139.27858787 27.12215572 137.76930012 27.13184615 136.26000977 27.14109802 C132.2050775 27.16729245 128.1502242 27.20012655 124.09535193 27.23424792 C119.84199213 27.26887873 115.58859052 27.29727129 111.33518982 27.32635498 C103.29970349 27.38223247 95.26426949 27.44363586 87.2288397 27.50707632 C78.07275746 27.57909151 68.91663362 27.64486764 59.76050127 27.71014678 C40.94315474 27.84444446 22.12587389 27.98648917 3.30862427 28.13371277 C2.53070531 43.58098618 2.01941702 59.01695916 1.75393677 74.48136902 C1.73300083 75.67569109 1.7120649 76.87001316 1.69049454 78.10052681 C1.03313735 117.04534372 1.15810324 155.9989903 1.1800549 194.94796431 C1.18438544 203.52798975 1.1812992 212.10800043 1.17642677 220.68802494 C1.17182507 229.14584924 1.17127811 237.60366735 1.17386544 246.0614925 C1.17538679 251.03689325 1.17574102 256.01228422 1.17232895 260.98768425 C1.16007892 281.74873036 1.30077002 302.49845778 1.75442505 323.25505066 C1.77383707 324.20169488 1.79324909 325.1483391 1.81324935 326.12366951 C1.86900603 328.77492934 1.93161308 331.42592473 1.99688721 334.07696533 C2.01318279 334.86756021 2.02947836 335.65815509 2.04626775 336.47270739 C2.07736295 340.43321811 2.07736295 340.43321811 3.30862427 344.13371277 C64.02862427 344.13371277 124.74862427 344.13371277 187.30862427 344.13371277 C189.56622984 339.61850162 189.5609945 336.25532636 189.4914856 331.35783386 C189.48452164 330.0304142 189.48452164 330.0304142 189.47741699 328.67617798 C189.45904504 325.75297987 189.42552379 322.83019498 189.39065552 319.90715027 C189.37209895 317.87742017 189.35401346 315.84768572 189.33638 313.81794739 C189.29688353 309.56600138 189.24951311 305.31422874 189.197052 301.06242371 C189.13063766 295.60351117 189.08708127 290.14468615 189.0497942 284.68550682 C189.01811596 280.49562715 188.97273008 276.30598044 188.92331505 272.11627579 C188.9015523 270.10280948 188.88448974 268.08928686 188.87214088 266.07574081 C188.8531902 263.26704671 188.81544371 260.45922192 188.7727356 257.65080261 C188.77102859 256.81336014 188.76932159 255.97591766 188.76756287 255.11309814 C188.75138496 252.5697612 188.75138496 252.5697612 188.30862427 249.13371277 C185.01961023 246.94103674 184.09846186 246.89093808 180.28982544 246.92253113 C178.7575959 246.92759926 178.7575959 246.92759926 177.19441223 246.93276978 C176.09128189 246.9462294 174.98815155 246.95968903 173.85159302 246.97355652 C172.71587357 246.97875809 171.58015411 246.98395966 170.41001892 246.98931885 C166.77192522 247.00715991 163.13411062 247.03831698 159.49612427 247.07121277 C155.86887615 247.09886497 152.24166973 247.1235957 148.61436462 247.14239502 C146.35609816 247.15460932 144.09785273 247.17217068 141.8396759 247.19570923 C136.87877821 247.22713599 132.18224642 247.20872226 127.30862427 246.13371277 C127.30862427 245.47371277 127.30862427 244.81371277 127.30862427 244.13371277 C126.64862427 244.13371277 125.98862427 244.13371277 125.30862427 244.13371277 C125.25390338 242.73833023 125.21550889 241.3423038 125.18362427 239.94621277 C125.16042114 239.16890808 125.13721802 238.39160339 125.11331177 237.59074402 C125.55440435 232.04179933 127.95552781 229.16541723 131.93362427 225.44621277 C133.4267749 224.0449121 134.89451818 222.61474158 136.30862427 221.13371277 C136.30862427 220.47371277 136.30862427 219.81371277 136.30862427 219.13371277 C136.96862427 219.13371277 137.62862427 219.13371277 138.30862427 219.13371277 C138.30862427 218.47371277 138.30862427 217.81371277 138.30862427 217.13371277 C138.96862427 217.13371277 139.62862427 217.13371277 140.30862427 217.13371277 C140.30862427 216.47371277 140.30862427 215.81371277 140.30862427 215.13371277 C140.86549927 214.90683777 141.42237427 214.67996277 141.99612427 214.44621277 C144.97022014 212.75821241 147.02871292 210.6669476 149.30862427 208.13371277 C149.30862427 207.47371277 149.30862427 206.81371277 149.30862427 206.13371277 C149.96862427 206.13371277 150.62862427 206.13371277 151.30862427 206.13371277 C151.30862427 205.47371277 151.30862427 204.81371277 151.30862427 204.13371277 C151.96862427 204.13371277 152.62862427 204.13371277 153.30862427 204.13371277 C153.30862427 203.47371277 153.30862427 202.81371277 153.30862427 202.13371277 C153.96862427 202.13371277 154.62862427 202.13371277 155.30862427 202.13371277 C155.30862427 201.47371277 155.30862427 200.81371277 155.30862427 200.13371277 C155.90674927 199.86558777 156.50487427 199.59746277 157.12112427 199.32121277 C159.3071028 198.13453871 160.72195021 197.03772164 162.30862427 195.13371277 C162.30862427 194.47371277 162.30862427 193.81371277 162.30862427 193.13371277 C162.96862427 193.13371277 163.62862427 193.13371277 164.30862427 193.13371277 C164.30862427 192.47371277 164.30862427 191.81371277 164.30862427 191.13371277 C164.96862427 191.13371277 165.62862427 191.13371277 166.30862427 191.13371277 C166.30862427 190.47371277 166.30862427 189.81371277 166.30862427 189.13371277 C166.96862427 189.13371277 167.62862427 189.13371277 168.30862427 189.13371277 C168.30862427 188.47371277 168.30862427 187.81371277 168.30862427 187.13371277 C168.84874146 186.93132996 169.38885864 186.72894714 169.94534302 186.52043152 C173.27756759 184.56515925 175.5667566 181.79328368 178.12112427 178.94621277 C186.35065461 169.96953344 194.95030538 161.3697422 203.55862427 152.75871277 C204.26105255 152.0539682 204.96348083 151.34922363 205.68719482 150.62312317 C207.70921313 148.59515039 209.7348197 146.57083807 211.76174927 144.54777527 C212.68436806 143.62216545 212.68436806 143.62216545 213.62562561 142.67785645 C214.19809525 142.10850876 214.77056488 141.53916107 215.36038208 140.95256042 C215.85918884 140.45454926 216.35799561 139.95653809 216.87191772 139.44343567 C220.84307103 135.82327368 223.6816295 135.7056033 228.81253052 135.81730652 C232.47880993 136.28204616 234.50818896 137.77880126 237.30862427 140.13371277 C239.30736105 141.80189874 241.30816859 143.46758739 243.30862427 145.13371277 C243.35797083 139.33131662 243.39431829 133.52904196 243.41848755 127.72648621 C243.42856054 125.75152968 243.44221948 123.77658811 243.45950317 121.80168152 C243.48369466 118.96700859 243.49509418 116.13253239 243.50393677 113.29777527 C243.51425934 112.41127289 243.52458191 111.52477051 243.53521729 110.61140442 C243.53561497 108.45085325 243.43134961 106.29077558 243.30862427 104.13371277 C238.71685558 99.54194408 227.29148738 101.11678876 220.97268677 101.0912323 C214.06115885 101.09757329 207.14989247 101.15436024 200.23880005 101.22966003 C197.26206889 101.25990846 194.28546015 101.27762699 191.30862427 101.29386902 C189.95692139 101.31405846 189.95692139 101.31405846 188.57791138 101.33465576 C178.55761874 101.37439345 178.55761874 101.37439345 174.30862427 99.13371277 C170.20019531 92.02222259 170.85257793 82.99959744 170.83206177 75.06730652 C170.80826524 73.05837683 170.78446443 71.04944718 170.76040077 69.04052067 C170.73063243 66.25760004 170.71403841 63.47466021 170.69735718 60.69163513 C170.66556252 55.78239841 170.61483138 50.87333215 170.56097412 45.96429443 C170.53369119 43.35573907 170.5123646 40.74711357 170.49743652 38.13845825 C170.48717438 36.96956558 170.47691223 35.80067291 170.46633911 34.59635925 C170.45984344 33.56284836 170.45334778 32.52933746 170.44665527 31.46450806 C170.56985837 29.17359085 170.56985837 29.17359085 169.30862427 28.13371277 C159.85385463 26.88804032 150.30274126 27.02230041 140.78787231 27.11198425 Z " fill="#2C7CB1" transform="translate(101.69137573242188,63.86628723144531)"/>
<path d="M0 0 C21.91395822 -0.046731 43.82790822 -0.08199425 65.74190617 -0.10362434 C75.91706572 -0.11393473 86.09219431 -0.12799056 96.26733398 -0.15087891 C105.13649324 -0.17082001 114.00563006 -0.18371817 122.87481111 -0.18817699 C127.5704952 -0.19078314 132.26611513 -0.19690385 136.96177864 -0.21146011 C141.38334371 -0.22505537 145.8048183 -0.22921869 150.22640228 -0.22621536 C151.84731221 -0.22676465 153.46822523 -0.23073051 155.08911705 -0.23841095 C157.30696319 -0.24840272 159.52447039 -0.24595361 161.74232483 -0.24050903 C162.98213639 -0.24235262 164.22194796 -0.24419621 165.49932957 -0.24609566 C169.31775956 0.02233836 172.37130642 0.82676167 176 2 C176 3.32 176 4.64 176 6 C175.34 6 174.68 6 174 6 C172.68759401 8.62481198 172.83663146 10.62420203 172.79125977 13.5637207 C172.76232384 15.31112297 172.76232384 15.31112297 172.73280334 17.09382629 C172.67522316 22.42378224 172.62548318 27.75357222 172.5949707 33.08374023 C172.57716198 35.8980065 172.54235262 38.71126979 172.49243164 41.52514648 C172.42066029 45.57552123 172.39800385 49.62481012 172.37890625 53.67578125 C172.33716026 55.56348991 172.33716026 55.56348991 172.29457092 57.48933411 C172.07935325 63.52529805 172.07935325 63.52529805 174.37789917 68.86386108 C176.18265088 70.38625465 176.18265088 70.38625465 179 72 C179 72.66 179 73.32 179 74 C194.18 74 209.36 74 225 74 C225 74.33 225 74.66 225 75 C212.96502551 75.55866054 200.92289037 76.0934741 188.875 76.25 C187.67955566 76.2819043 187.67955566 76.2819043 186.45996094 76.31445312 C181.23398233 76.34578662 177.61512031 75.51359231 173 73 C169.66631754 67.77723081 168.88432336 63.13398865 168.79467773 57.03808594 C168.77473251 55.83714294 168.75478729 54.63619995 168.73423767 53.39886475 C168.70916893 51.46119232 168.70916893 51.46119232 168.68359375 49.484375 C168.66301037 48.14487079 168.64201354 46.80537287 168.62062073 45.46588135 C168.56554291 41.94784659 168.51607094 38.4297546 168.46777344 34.91162109 C168.41745375 31.31863336 168.36182244 27.72572827 168.30664062 24.1328125 C168.19923399 17.08861305 168.09812391 10.04433514 168 3 C158.4846006 2.10247273 149.0630587 1.87794028 139.51098633 1.9465332 C138.00494575 1.95342198 136.49890309 1.95986849 134.99285889 1.96591187 C130.94606313 1.98364692 126.89933794 2.00821805 122.8525908 2.03467202 C119.46712043 2.05630901 116.08163568 2.07488929 112.6961481 2.09360379 C104.71756102 2.13790337 96.73902643 2.18817169 88.76049805 2.24194336 C80.52887304 2.29728915 72.29724007 2.34118485 64.06552106 2.37979442 C56.98413237 2.41347807 49.90281529 2.45477924 42.82150477 2.50211972 C38.59737329 2.53024405 34.37327805 2.55530502 30.14908791 2.5727787 C26.18857139 2.58944133 22.22823077 2.61555595 18.26782227 2.64908981 C16.81253351 2.65979121 15.35721516 2.66707489 13.90189171 2.67075539 C11.92171514 2.67628899 9.941589 2.69516007 7.96150208 2.71479797 C6.2971825 2.72504234 6.2971825 2.72504234 4.5992403 2.73549366 C1.83892296 2.73981962 1.83892296 2.73981962 0 5 C0 3.35 0 1.7 0 0 Z " fill="#6FA0BC" transform="translate(103,90)"/>
<path d="M0 0 C24.4257929 -0.04669853 48.85157912 -0.08197832 73.27740765 -0.10362434 C84.61846597 -0.11394162 95.95949658 -0.12801061 107.30053711 -0.15087891 C117.18414558 -0.17079893 127.06773397 -0.18371315 136.95136195 -0.18817699 C142.18577198 -0.19078672 147.42012458 -0.19693014 152.65451622 -0.21146011 C157.58002898 -0.22502207 162.50546057 -0.22922543 167.43099022 -0.22621536 C169.23979635 -0.22676615 171.04860517 -0.23075183 172.85739517 -0.23841095 C175.32553694 -0.24835048 177.79337162 -0.24597251 180.26152039 -0.24050903 C180.97845446 -0.24633472 181.69538853 -0.2521604 182.43404788 -0.25816262 C186.39686633 -0.23442686 189.42956454 0.25587124 193 2 C193 2.33 193 2.66 193 3 C96.97 2.505 96.97 2.505 -1 2 C-0.67 1.34 -0.34 0.68 0 0 Z " fill="#5C93B5" transform="translate(94,64)"/>
<path d="M0 0 C55.11 0 110.22 0 167 0 C167 0.33 167 0.66 167 1 C157.86513031 1.93190123 148.80104441 2.15672515 139.62451172 2.17358398 C138.11861486 2.1799053 136.61271982 2.18667278 135.10682678 2.19384766 C131.89035301 2.20839674 128.67388586 2.2201685 125.45739365 2.22979546 C120.37310227 2.24536153 115.28887093 2.26930294 110.20462036 2.29469299 C95.75656931 2.36561846 81.30848673 2.42589686 66.86035156 2.47680664 C58.86091666 2.50506667 50.86154438 2.54040608 42.86217511 2.58346039 C37.80484416 2.61025575 32.74758381 2.62814465 27.6901958 2.63949764 C24.55545662 2.64859552 21.42080421 2.66594087 18.28611565 2.68567657 C16.82920756 2.69317394 15.37227728 2.69723444 13.91534996 2.69767189 C11.93295112 2.69874822 9.95057255 2.71311996 7.9682312 2.72825623 C6.857386 2.73248816 5.74654079 2.7367201 4.60203362 2.74108028 C1.83907915 2.73851034 1.83907915 2.73851034 0 5 C0 3.35 0 1.7 0 0 Z " fill="#91B9C8" transform="translate(103,90)"/>
<path d="M0 0 C0.66 0 1.32 0 2 0 C2 0.66 2 1.32 2 2 C2.66 2 3.32 2 4 2 C4 2.66 4 3.32 4 4 C4.66 4 5.32 4 6 4 C8.625 6.375 8.625 6.375 11 9 C11 9.66 11 10.32 11 11 C11.66 11 12.32 11 13 11 C13 11.66 13 12.32 13 13 C13.66 13 14.32 13 15 13 C15 13.66 15 14.32 15 15 C15.66 15 16.32 15 17 15 C17 15.66 17 16.32 17 17 C17.598125 17.2475 18.19625 17.495 18.8125 17.75 C21.28647521 19.16370012 22.43370255 20.65055383 24 23 C21.92446352 23.5534764 20.15634036 24 18 24 C18 25.98 18 27.96 18 30 C16 31 16 31 14 31 C13.505 32.485 13.505 32.485 13 34 C12.34 33.01 11.68 32.02 11 31 C10.01 30.67 9.02 30.34 8 30 C7.3125 27.9375 7.3125 27.9375 7 26 C7.66 26 8.32 26 9 26 C8.814375 24.948125 8.62875 23.89625 8.4375 22.8125 C8.04920669 19.42880118 8.11752515 17.23574112 9 14 C7.68 13.67 6.36 13.34 5 13 C5 10.36 5 7.72 5 5 C4.01 5 3.02 5 2 5 C1.34 3.35 0.68 1.7 0 0 Z " fill="#3380B3" transform="translate(340,117)"/>
<path d="M0 0 C0.66 0 1.32 0 2 0 C2 0.66 2 1.32 2 2 C2.66 2 3.32 2 4 2 C4 2.66 4 3.32 4 4 C4.66 4 5.32 4 6 4 C6 4.66 6 5.32 6 6 C6.66 6 7.32 6 8 6 C8 6.66 8 7.32 8 8 C8.66 8 9.32 8 10 8 C11.54296875 9.42578125 11.54296875 9.42578125 13.1875 11.3125 C14.01314453 12.23482422 14.01314453 12.23482422 14.85546875 13.17578125 C15.23316406 13.77777344 15.61085938 14.37976563 16 15 C15.67 15.99 15.34 16.98 15 18 C13.68 18 12.36 18 11 18 C10.67 18.66 10.34 19.32 10 20 C9.01 20 8.02 20 7 20 C7 18.35 7 16.7 7 15 C5.576875 15.0928125 5.576875 15.0928125 4.125 15.1875 C3.09375 15.125625 2.0625 15.06375 1 15 C-1 12 -1 12 -0.5625 9.625 C-0.376875 8.75875 -0.19125 7.8925 0 7 C-0.31088368 5.32900023 -0.64080332 3.66128463 -1 2 C-0.67 1.34 -0.34 0.68 0 0 Z " fill="#2C7BB1" transform="translate(323,100)"/>
<path d="M0 0 C1.80791016 0.07250977 1.80791016 0.07250977 3.65234375 0.14648438 C5.53373047 0.2305957 5.53373047 0.2305957 7.453125 0.31640625 C9.35771484 0.3947168 9.35771484 0.3947168 11.30078125 0.47460938 C14.43514907 0.60422609 17.56919374 0.73919096 20.703125 0.87890625 C20.703125 1.20890625 20.703125 1.53890625 20.703125 1.87890625 C11.463125 2.20890625 2.223125 2.53890625 -7.296875 2.87890625 C-7.626875 38.51890625 -7.956875 74.15890625 -8.296875 110.87890625 C-8.626875 110.87890625 -8.956875 110.87890625 -9.296875 110.87890625 C-9.626875 74.57890625 -9.956875 38.27890625 -10.296875 0.87890625 C-6.49536573 -0.07147107 -3.872077 -0.16438063 0 0 Z " fill="#7C9EB3" transform="translate(379.296875,309.12109375)"/>
<path d="M0 0 C3 2 3 2 3.875 5.75 C4.25329739 9.91127129 3.34434817 12.48347774 1 16 C-2.25183946 18.16789297 -3.1297227 18.24814258 -6.8828125 18.23046875 C-7.87418213 18.22917969 -8.86555176 18.22789062 -9.88696289 18.2265625 C-10.95551514 18.21367187 -12.02406738 18.20078125 -13.125 18.1875 C-14.22126709 18.18105469 -15.31753418 18.17460937 -16.44702148 18.16796875 C-28.3074146 18.05997058 -40.15410115 17.57286919 -52 17 C-52 16.67 -52 16.34 -52 16 C-35.83 15.67 -19.66 15.34 -3 15 C-2.67 14.34 -2.34 13.68 -2 13 C-2.66 13 -3.32 13 -4 13 C-4 12.34 -4 11.68 -4 11 C-4.66 11 -5.32 11 -6 11 C-5.67 10.01 -5.34 9.02 -5 8 C-4.34 8 -3.68 8 -3 8 C-3 8.99 -3 9.98 -3 11 C-2.34 11 -1.68 11 -1 11 C-0.27743171 6.51866426 -0.27743171 6.51866426 0 2 C0 1.34 0 0.68 0 0 Z " fill="#437C9F" transform="translate(427,293)"/>
<path d="M0 0 C0.66 0 1.32 0 2 0 C2 14.85 2 29.7 2 45 C0.68 45 -0.64 45 -2 45 C-1.67 44.34 -1.34 43.68 -1 43 C-0.88273341 41.61182327 -0.82318594 40.21851286 -0.79467773 38.82568359 C-0.77473251 37.96494232 -0.75478729 37.10420105 -0.73423767 36.21737671 C-0.71752518 35.28712677 -0.70081268 34.35687683 -0.68359375 33.3984375 C-0.66281265 32.44683746 -0.64203156 31.49523743 -0.62062073 30.51480103 C-0.55511867 27.46827568 -0.4962372 24.42166257 -0.4375 21.375 C-0.39431541 19.31249084 -0.35070114 17.24999063 -0.30664062 15.1875 C-0.1994366 10.12509046 -0.09817098 5.06259245 0 0 Z " fill="#4981A5" transform="translate(345,165)"/>
<path d="M0 0 C2.78211944 0.37596209 4.5879284 0.67318459 6.8125 2.4375 C8 4 8 4 8 6 C23.18 6 38.36 6 54 6 C54 6.33 54 6.66 54 7 C41.96502551 7.55866054 29.92289037 8.0934741 17.875 8.25 C17.07803711 8.27126953 16.28107422 8.29253906 15.45996094 8.31445312 C10.23878909 8.3457578 6.61144173 7.510476 2 5 C0.5625 2.3125 0.5625 2.3125 0 0 Z " fill="#719AB0" transform="translate(274,158)"/>
<path d="M0 0 C-2.49398774 2.49398774 -4.83552462 3.10613333 -8.125 4.21875 C-10.19575753 4.94192432 -10.19575753 4.94192432 -12 7 C-12.99 7 -13.98 7 -15 7 C-14.34 7.33 -13.68 7.66 -13 8 C-14.36983503 11.16115776 -14.9890638 11.9927092 -18 14 C-20.6875 13.625 -20.6875 13.625 -23 13 C-21.0653914 10.60477031 -19.05993714 8.28831154 -17 6 C-16.20529297 5.10861328 -16.20529297 5.10861328 -15.39453125 4.19921875 C-10.621745 -0.55089393 -6.5408967 -0.71068093 0 0 Z " fill="#5A95B8" transform="translate(333,199)"/>
<path d="M0 0 C0.103125 0.639375 0.20625 1.27875 0.3125 1.9375 C0.539375 2.618125 0.76625 3.29875 1 4 C1.99 4.33 2.98 4.66 4 5 C2.68 5 1.36 5 0 5 C0.33 5.99 0.66 6.98 1 8 C1.99 8 2.98 8 4 8 C4 9.32 4 10.64 4 12 C9.445 11.01 9.445 11.01 15 10 C14.34 11.65 13.68 13.3 13 15 C12.30132812 14.98839844 11.60265625 14.97679687 10.8828125 14.96484375 C9.97273437 14.95582031 9.06265625 14.94679688 8.125 14.9375 C7.22007812 14.92589844 6.31515625 14.91429687 5.3828125 14.90234375 C2.9831415 14.83750743 2.9831415 14.83750743 1 16 C1 15.34 1 14.68 1 14 C0.34 14 -0.32 14 -1 14 C-2.51708428 4.58997722 -2.51708428 4.58997722 0 0 Z " fill="#277BB5" transform="translate(228,294)"/>
<path d="M0 0 C0 0.99 0 1.98 0 3 C-0.99 2.67 -1.98 2.34 -3 2 C-4.6819334 1.92217215 -6.36687401 1.90285977 -8.05053711 1.91821289 C-9.59244972 1.92800926 -9.59244972 1.92800926 -11.16551208 1.93800354 C-12.82961876 1.95515663 -12.82961876 1.95515663 -14.52734375 1.97265625 C-16.86913915 1.98530153 -19.21093611 1.99766256 -21.55273438 2.00976562 C-25.25061846 2.03460675 -28.94842271 2.06259851 -32.64624023 2.09594727 C-36.21078001 2.12610894 -39.77521724 2.14391187 -43.33984375 2.16015625 C-44.44722397 2.17361588 -45.55460419 2.1870755 -46.69554138 2.20094299 C-48.24218224 2.20601112 -48.24218224 2.20601112 -49.82006836 2.21118164 C-50.72591171 2.21863907 -51.63175507 2.2260965 -52.56504822 2.23377991 C-55.15179274 1.98542637 -56.77628315 1.30908919 -59 0 C-51.24054221 -0.16825677 -43.48094444 -0.32814157 -35.72119141 -0.48217773 C-33.08085209 -0.53558187 -30.44055097 -0.59090998 -27.80029297 -0.64819336 C-24.00757075 -0.73014809 -20.21476549 -0.80520677 -16.421875 -0.87890625 C-15.23946228 -0.90594131 -14.05704956 -0.93297638 -12.83880615 -0.96083069 C-11.1875473 -0.99097511 -11.1875473 -0.99097511 -9.50292969 -1.02172852 C-8.53474304 -1.04171402 -7.5665564 -1.06169952 -6.56903076 -1.08229065 C-4.20733137 -1.00664119 -2.25387191 -0.67864114 0 0 Z " fill="#8BADC0" transform="translate(290,310)"/>
<path d="M0 0 C0.99 0.33 1.98 0.66 3 1 C2.67 1.99 2.34 2.98 2 4 C1.34 4 0.68 4 0 4 C0.20625 4.7425 0.4125 5.485 0.625 6.25 C1.04408751 9.32330841 0.61949011 10.42786866 -1 13 C-1.33 12.67 -1.66 12.34 -2 12 C-4.32817964 11.63239269 -6.6618385 11.29758419 -9 11 C-8.67 9.68 -8.34 8.36 -8 7 C-7.34 7 -6.68 7 -6 7 C-6 6.34 -6 5.68 -6 5 C-3.1875 2.3125 -3.1875 2.3125 0 0 Z " fill="#2A79AD" transform="translate(263,259)"/>
<path d="M0 0 C0.66 0 1.32 0 2 0 C2 0.66 2 1.32 2 2 C2.66 2 3.32 2 4 2 C4 2.66 4 3.32 4 4 C4.66 4 5.32 4 6 4 C8.625 6.375 8.625 6.375 11 9 C11 9.66 11 10.32 11 11 C11.66 11 12.32 11 13 11 C13 11.66 13 12.32 13 13 C13.66 13 14.32 13 15 13 C14.67 13.66 14.34 14.32 14 15 C11.4375 15.625 11.4375 15.625 9 16 C9 15.34 9 14.68 9 14 C7.68 13.67 6.36 13.34 5 13 C5 10.36 5 7.72 5 5 C4.01 5 3.02 5 2 5 C1.34 3.35 0.68 1.7 0 0 Z " fill="#528BB0" transform="translate(340,117)"/>
<path d="M0 0 C0.99 1.32 1.98 2.64 3 4 C2.01 4.33 1.02 4.66 0 5 C3.28696233 5.79953138 4.71023192 6.09658936 8 5 C8.66 5.33 9.32 5.66 10 6 C10 6.66 10 7.32 10 8 C9.34 8 8.68 8 8 8 C7.67 8.66 7.34 9.32 7 10 C6.01 9.67 5.02 9.34 4 9 C3.34 10.32 2.68 11.64 2 13 C1.34 12.34 0.68 11.68 0 11 C0.66 11 1.32 11 2 11 C2 10.34 2 9.68 2 9 C1.01 9.33 0.02 9.66 -1 10 C-1.103125 9.360625 -1.20625 8.72125 -1.3125 8.0625 C-1.539375 7.381875 -1.76625 6.70125 -2 6 C-2.99 5.67 -3.98 5.34 -5 5 C-3.35 3.35 -1.7 1.7 0 0 Z " fill="#428BB9" transform="translate(302,219)"/>
<path d="M0 0 C5.29012124 4.40843437 10.18808428 9.07559794 15 14 C13.68 14.33 12.36 14.66 11 15 C10.67 14.34 10.34 13.68 10 13 C8.02 13 6.04 13 4 13 C4.0825 12.113125 4.165 11.22625 4.25 10.3125 C3.9462411 6.28769461 2.62767506 4.95613444 0 2 C0 1.34 0 0.68 0 0 Z " fill="#5B95B8" transform="translate(399,265)"/>
<path d="M0 0 C0.66 0 1.32 0 2 0 C2 0.66 2 1.32 2 2 C2.66 2 3.32 2 4 2 C4 2.66 4 3.32 4 4 C4.66 4 5.32 4 6 4 C6 4.66 6 5.32 6 6 C6.66 6 7.32 6 8 6 C8 6.66 8 7.32 8 8 C8.66 8 9.32 8 10 8 C12.625 10.375 12.625 10.375 15 13 C15 13.66 15 14.32 15 15 C13.0625 14.6875 13.0625 14.6875 11 14 C10.67 13.01 10.34 12.02 10 11 C9.34 11 8.68 11 8 11 C8 10.34 8 9.68 8 9 C6.35 8.67 4.7 8.34 3 8 C3 7.34 3 6.68 3 6 C1.68 5.34 0.36 4.68 -1 4 C-0.67 2.68 -0.34 1.36 0 0 Z " fill="#6397B8" transform="translate(323,100)"/>
<path d="M0 0 C0.33 0.99 0.66 1.98 1 3 C0.67 3.66 0.34 4.32 0 5 C-0.66 5 -1.32 5 -2 5 C-2.226875 5.721875 -2.45375 6.44375 -2.6875 7.1875 C-4.50394694 11.0798863 -7.12274973 14.06137486 -11 16 C-11.33 15.01 -11.66 14.02 -12 13 C-10.18777319 11.02058257 -8.37523172 9.04145495 -6.5625 7.0625 C-6.04623047 6.49853516 -5.52996094 5.93457031 -4.99804688 5.35351562 C-1.11328125 1.11328125 -1.11328125 1.11328125 0 0 Z " fill="#4F8BB2" transform="translate(288,233)"/>
<path d="M0 0 C0 1.32 0 2.64 0 4 C-0.66 4 -1.32 4 -2 4 C-2.33 4.66 -2.66 5.32 -3 6 C-3.99 6.495 -3.99 6.495 -5 7 C-5 5.35 -5 3.7 -5 2 C-8.16245541 0.9458482 -10.86948218 0.68724328 -14.1875 0.4375 C-15.81751953 0.31181641 -15.81751953 0.31181641 -17.48046875 0.18359375 C-18.31191406 0.12300781 -19.14335937 0.06242187 -20 0 C-20 -0.33 -20 -0.66 -20 -1 C-12.77466796 -1.99939172 -7.04335384 -1.96290189 0 0 Z " fill="#5C99C0" transform="translate(279,92)"/>
<path d="M0 0 C5.01113235 1.4317521 6.94469549 3.98445693 10 8 C5.61031544 8 4.23094261 5.87194899 1 3 C0.938125 3.61875 0.87625 4.2375 0.8125 4.875 C0 7 0 7 -2.5625 8.25 C-3.366875 8.4975 -4.17125 8.745 -5 9 C-4.625 7.0625 -4.625 7.0625 -4 5 C-3.34 4.67 -2.68 4.34 -2 4 C-0.86649466 1.98330173 -0.86649466 1.98330173 0 0 Z " fill="#3580B2" transform="translate(333,200)"/>
<path d="M0 0 C3 2 3 2 3.58203125 3.83984375 C3.65808594 4.53207031 3.73414063 5.22429687 3.8125 5.9375 C3.90144531 6.62714844 3.99039062 7.31679688 4.08203125 8.02734375 C4 10 4 10 2 13 C1.01 12.67 0.02 12.34 -1 12 C-1.25 6.375 -1.25 6.375 1 3 C0.67 2.01 0.34 1.02 0 0 Z " fill="#5F9BC0" transform="translate(427,293)"/>
<path d="M0 0 C0.66 0.33 1.32 0.66 2 1 C1.67 1.66 1.34 2.32 1 3 C0.34 3 -0.32 3 -1 3 C-1.66 5.97 -2.32 8.94 -3 12 C-4.32 11.67 -5.64 11.34 -7 11 C-7 11.66 -7 12.32 -7 13 C-8.32 12.67 -9.64 12.34 -11 12 C-10.43410156 11.44570313 -9.86820313 10.89140625 -9.28515625 10.3203125 C-8.55167969 9.59585937 -7.81820312 8.87140625 -7.0625 8.125 C-6.33160156 7.40570313 -5.60070312 6.68640625 -4.84765625 5.9453125 C-2.94332001 4.12972808 -2.94332001 4.12972808 -2 2 C-1.34 2 -0.68 2 0 2 C0 1.34 0 0.68 0 0 Z " fill="#5F95B9" transform="translate(240,281)"/>
<path d="M0 0 C4.88049925 3.9419417 9.0580583 8.11950075 13 13 C12.01 13 11.02 13 10 13 C9.34 11.68 8.68 10.36 8 9 C6.68 9 5.36 9 4 9 C3.34 7.02 2.68 5.04 2 3 C1.01 3.33 0.02 3.66 -1 4 C-0.67 2.68 -0.34 1.36 0 0 Z " fill="#6396B3" transform="translate(414,280)"/>
<path d="M0 0 C10.56 0 21.12 0 32 0 C32 0.33 32 0.66 32 1 C31.13721436 1.01458252 30.27442871 1.02916504 29.38549805 1.04418945 C26.18150353 1.10527754 22.97815375 1.17943549 19.7746582 1.26245117 C18.38870623 1.29568549 17.00261939 1.32372226 15.61645508 1.34643555 C13.62293157 1.38000617 11.62978259 1.43388 9.63671875 1.48828125 C8.43748779 1.51446533 7.23825684 1.54064941 6.00268555 1.56762695 C2.99026795 1.74238071 2.99026795 1.74238071 1.08520508 3.53198242 C0.7270874 4.01642822 0.36896973 4.50087402 0 5 C0 3.35 0 1.7 0 0 Z " fill="#386E90" transform="translate(103,90)"/>
<path d="M0 0 C0.103125 0.639375 0.20625 1.27875 0.3125 1.9375 C0.539375 2.618125 0.76625 3.29875 1 4 C1.99 4.33 2.98 4.66 4 5 C2.68 5 1.36 5 0 5 C0.99 8.63 1.98 12.26 3 16 C2.34 16 1.68 16 1 16 C1 15.34 1 14.68 1 14 C0.34 14 -0.32 14 -1 14 C-2.51708428 4.58997722 -2.51708428 4.58997722 0 0 Z " fill="#6F9FBD" transform="translate(228,294)"/>
<path d="M0 0 C2.31 1.98 4.62 3.96 7 6 C5 8 5 8 2.375 8.125 C1.59125 8.08375 0.8075 8.0425 0 8 C0.33 6.68 0.66 5.36 1 4 C0.34 4 -0.32 4 -1 4 C-1.33 4.99 -1.66 5.98 -2 7 C-2 6.34 -2 5.68 -2 5 C-2.66 4.67 -3.32 4.34 -4 4 C-2.68 3.34 -1.36 2.68 0 2 C0 1.34 0 0.68 0 0 Z " fill="#3E81AB" transform="translate(372,238)"/>
<path d="M0 0 C0.99 0.33 1.98 0.66 3 1 C3 1.66 3 2.32 3 3 C3.66 3 4.32 3 5 3 C5 3.66 5 4.32 5 5 C5.66 5 6.32 5 7 5 C6.67 5.66 6.34 6.32 6 7 C3.4375 7.625 3.4375 7.625 1 8 C1 7.34 1 6.68 1 6 C0.01 5.67 -0.98 5.34 -2 5 C-1.01 4.34 -0.02 3.68 1 3 C0.67 2.01 0.34 1.02 0 0 Z " fill="#5993BB" transform="translate(348,125)"/>
<path d="M0 0 C0.66 0.33 1.32 0.66 2 1 C-0.46153846 6.66153846 -0.46153846 6.66153846 -3.1875 8.375 C-3.785625 8.58125 -4.38375 8.7875 -5 9 C-5 9.66 -5 10.32 -5 11 C-5.66 11 -6.32 11 -7 11 C-5.5140084 6.40693504 -3.14985318 3.56430755 0 0 Z " fill="#6C9CB8" transform="translate(86,67)"/>
<path d="M0 0 C1.04187157 3.12561472 1.23843794 4.04680182 0 7 C-2.0625 8.25 -2.0625 8.25 -4 9 C-4.99 8.34 -5.98 7.68 -7 7 C-4.69 4.69 -2.38 2.38 0 0 Z " fill="#6EA3C2" transform="translate(296,225)"/>
<path d="M0 0 C2.74148672 0.37047118 4.58593199 0.68587944 6.8125 2.375 C8 4 8 4 8 7 C4.21388773 6.45912682 2.44599233 4.88277668 0 2 C0 1.34 0 0.68 0 0 Z " fill="#6599B9" transform="translate(274,158)"/>
<path d="M0 0 C0.99 0.33 1.98 0.66 3 1 C2.01 2.485 2.01 2.485 1 4 C0.67 4.66 0.34 5.32 0 6 C0.33 6.33 0.66 6.66 1 7 C0.01 7.66 -0.98 8.32 -2 9 C-2 8.34 -2 7.68 -2 7 C-2.66 7 -3.32 7 -4 7 C-3.6875 4.625 -3.6875 4.625 -3 2 C-2.01 1.34 -1.02 0.68 0 0 Z " fill="#3883B6" transform="translate(308,86)"/>
<path d="M0 0 C0.99 0.66 1.98 1.32 3 2 C1.49776416 6.20626034 -1.28550034 7.73900021 -5 10 C-4.67 8.68 -4.34 7.36 -4 6 C-3.01 6 -2.02 6 -1 6 C-1.020625 5.195625 -1.04125 4.39125 -1.0625 3.5625 C-1 1 -1 1 0 0 Z " fill="#679CBB" transform="translate(365,423)"/>
<path d="M0 0 C0.66 0 1.32 0 2 0 C2 0.99 2 1.98 2 3 C3.65 3.33 5.3 3.66 7 4 C6.625 5.9375 6.625 5.9375 6 8 C5.01 8.495 5.01 8.495 4 9 C3.67 7.68 3.34 6.36 3 5 C2.34 5 1.68 5 1 5 C1 4.34 1 3.68 1 3 C0.34 3 -0.32 3 -1 3 C-0.67 2.01 -0.34 1.02 0 0 Z " fill="#438AB6" transform="translate(422,301)"/>
<path d="M0 0 C0 3 0 3 -1.6875 4.75 C-4 6 -4 6 -6.75 5.6875 C-7.4925 5.460625 -8.235 5.23375 -9 5 C-7.875 3.0625 -7.875 3.0625 -6 1 C-2.8125 0.25 -2.8125 0.25 0 0 Z " fill="#5091BB" transform="translate(319,207)"/>
<path d="M0 0 C1.12894876 0.93274109 2.25300876 1.87140122 3.375 2.8125 C4.00148438 3.33457031 4.62796875 3.85664063 5.2734375 4.39453125 C7 6 7 6 9 9 C4.64014292 9 3.04117749 6.97359577 0 4 C0 2.68 0 1.36 0 0 Z " fill="#5F90AD" transform="translate(390,256)"/>
<path d="M0 0 C2.31 1.98 4.62 3.96 7 6 C6.34 6.66 5.68 7.32 5 8 C3.02 6.68 1.04 5.36 -1 4 C-0.67 2.68 -0.34 1.36 0 0 Z " fill="#4681A8" transform="translate(379,245)"/>
<path d="M0 0 C0 3.3408643 -0.32717969 5.11058309 -2 8 C-5.125 8.8125 -5.125 8.8125 -8 9 C-8 8.34 -8 7.68 -8 7 C-7.34 7 -6.68 7 -6 7 C-6 6.34 -6 5.68 -6 5 C-4.04072937 3.2856382 -2.04119788 1.61594832 0 0 Z " fill="#6296B6" transform="translate(263,259)"/>
<path d="M0 0 C5.57142857 5.14285714 5.57142857 5.14285714 6 9 C5.01 9.33 4.02 9.66 3 10 C3 8.02 3 6.04 3 4 C2.01 4.33 1.02 4.66 0 5 C0 3.35 0 1.7 0 0 Z " fill="#6B9EBB" transform="translate(364,140)"/>
<path d="M0 0 C0.33 0 0.66 0 1 0 C3.27571116 9.01531729 3.27571116 9.01531729 2.125 13.125 C1.75375 13.74375 1.3825 14.3625 1 15 C0.67 15 0.34 15 0 15 C0 10.05 0 5.1 0 0 Z " fill="#2E75A4" transform="translate(291,360)"/>
<path d="M0 0 C1.98 0.66 3.96 1.32 6 2 C6 2.66 6 3.32 6 4 C7.32 4.33 8.64 4.66 10 5 C8.375 5.8125 8.375 5.8125 6 6 C3.70232365 4.54854104 1.98596134 2.89569037 0 1 C0 0.67 0 0.34 0 0 Z " fill="#6398B8" transform="translate(81,427)"/>
<path d="M0 0 C3.7952131 1.49097658 5.61042731 3.75700849 8 7 C5 7 5 7 2.3125 4.625 C0 2 0 2 0 0 Z " fill="#699AB7" transform="translate(335,201)"/>
<path d="M0 0 C0.66 0 1.32 0 2 0 C2 0.66 2 1.32 2 2 C2.66 2 3.32 2 4 2 C4 2.66 4 3.32 4 4 C4.66 4 5.32 4 6 4 C5.67 4.66 5.34 5.32 5 6 C3.35 5.67 1.7 5.34 0 5 C0 3.33333333 0 1.66666667 0 0 Z " fill="#72A5C5" transform="translate(323,100)"/>
<path d="M0 0 C1.17539996 0.92652701 2.34010577 1.86663387 3.5 2.8125 C4.1496875 3.33457031 4.799375 3.85664062 5.46875 4.39453125 C7 6 7 6 7 9 C0.70535714 4.17857143 0.70535714 4.17857143 0 0 Z " fill="#78A4BC" transform="translate(293,69)"/>
<path d="M0 0 C1.37478516 0.01740234 1.37478516 0.01740234 2.77734375 0.03515625 C3.69644531 0.04417969 4.61554688 0.05320313 5.5625 0.0625 C6.27277344 0.07410156 6.98304688 0.08570313 7.71484375 0.09765625 C5.10792533 2.70457467 3.33876581 2.80182588 -0.28515625 3.09765625 C-1.27515625 2.43765625 -2.26515625 1.77765625 -3.28515625 1.09765625 C-2.28515625 0.09765625 -2.28515625 0.09765625 0 0 Z " fill="#5C8FAF" transform="translate(325.28515625,198.90234375)"/>
<path d="M0 0 C0.33 0 0.66 0 1 0 C0.67 2.64 0.34 5.28 0 8 C-1.32 7.67 -2.64 7.34 -4 7 C-3.67 5.68 -3.34 4.36 -3 3 C-2.01 3.33 -1.02 3.66 0 4 C0 2.68 0 1.36 0 0 Z " fill="#7AAAC9" transform="translate(430,298)"/>
<path d="M0 0 C0 3.5595477 -0.61579539 4.44549506 -3 7 C-5.1875 7.75 -5.1875 7.75 -7 8 C-7 7.34 -7 6.68 -7 6 C-6.34 6 -5.68 6 -5 6 C-5 5.34 -5 4.68 -5 4 C-3.37373596 2.61767557 -1.7074998 1.28062485 0 0 Z " fill="#6D9CBA" transform="translate(275,247)"/>
<path d="M0 0 C2.31 1.98 4.62 3.96 7 6 C6.34 6.66 5.68 7.32 5 8 C0 2.25 0 2.25 0 0 Z " fill="#6290AD" transform="translate(399,265)"/>
<path d="M0 0 C0.66 0.33 1.32 0.66 2 1 C2.625 4.0625 2.625 4.0625 3 7 C2.01 7 1.02 7 0 7 C-0.66 5.35 -1.32 3.7 -2 2 C-1.34 2 -0.68 2 0 2 C0 1.34 0 0.68 0 0 Z " fill="#5A95BB" transform="translate(266,255)"/>
<path d="M0 0 C1.98 1.65 3.96 3.3 6 5 C5.34 5.66 4.68 6.32 4 7 C3.34 5.68 2.68 4.36 2 3 C1.01 3.33 0.02 3.66 -1 4 C-0.67 2.68 -0.34 1.36 0 0 Z " fill="#6F9EB9" transform="translate(414,280)"/>
<path d="M0 0 C0.33 0.99 0.66 1.98 1 3 C0 5 0 5 -3.0625 6.125 C-4.031875 6.41375 -5.00125 6.7025 -6 7 C-4.02 4.69 -2.04 2.38 0 0 Z " fill="#91B9CC" transform="translate(288,233)"/>
<path d="" fill="#FFFFFF" transform="translate(0,0)"/>
<path d="" fill="#FFFFFF" transform="translate(0,0)"/>
<path d="" fill="#FFFFFF" transform="translate(0,0)"/>
<path d="" fill="#FFFFFF" transform="translate(0,0)"/>
<path d="" fill="#FFFFFF" transform="translate(0,0)"/>
<path d="" fill="#FFFFFF" transform="translate(0,0)"/>
<path d="" fill="#FFFFFF" transform="translate(0,0)"/>
<path d="" fill="#FFFFFF" transform="translate(0,0)"/>
<path d="" fill="#FFFFFF" transform="translate(0,0)"/>
<path d="" fill="#FFFFFF" transform="translate(0,0)"/>
<path d="" fill="#FFFFFF" transform="translate(0,0)"/>
<path d="" fill="#FFFFFF" transform="translate(0,0)"/>
<path d="" fill="#FFFFFF" transform="translate(0,0)"/>
<path d="" fill="#FFFFFF" transform="translate(0,0)"/>
<path d="" fill="#FFFFFF" transform="translate(0,0)"/>
<path d="" fill="#FFFFFF" transform="translate(0,0)"/>
<path d="" fill="#FFFFFF" transform="translate(0,0)"/>
<path d="" fill="#FFFFFF" transform="translate(0,0)"/>
<path d="" fill="#FFFFFF" transform="translate(0,0)"/>
<path d="" fill="#FFFFFF" transform="translate(0,0)"/>
<path d="" fill="#FFFFFF" transform="translate(0,0)"/>
<path d="" fill="#FFFFFF" transform="translate(0,0)"/>
<path d="" fill="#FFFFFF" transform="translate(0,0)"/>
<path d="" fill="#FFFFFF" transform="translate(0,0)"/>
<path d="" fill="#FFFFFF" transform="translate(0,0)"/>
<path d="" fill="#FFFFFF" transform="translate(0,0)"/>
<path d="" fill="#FFFFFF" transform="translate(0,0)"/>
<path d="" fill="#FFFFFF" transform="translate(0,0)"/>
<path d="" fill="#FFFFFF" transform="translate(0,0)"/>
<path d="" fill="#FFFFFF" transform="translate(0,0)"/>
<path d="" fill="#FFFFFF" transform="translate(0,0)"/>
<path d="" fill="#FFFFFF" transform="translate(0,0)"/>
<path d="" fill="#FFFFFF" transform="translate(0,0)"/>
<path d="" fill="#FFFFFF" transform="translate(0,0)"/>
<path d="" fill="#FFFFFF" transform="translate(0,0)"/>
<path d="" fill="#FFFFFF" transform="translate(0,0)"/>
<path d="" fill="#FFFFFF" transform="translate(0,0)"/>
<path d="" fill="#FFFFFF" transform="translate(0,0)"/>
<path d="" fill="#FFFFFF" transform="translate(0,0)"/>
<path d="" fill="#FFFFFF" transform="translate(0,0)"/>
<path d="" fill="#FFFFFF" transform="translate(0,0)"/>
<path d="" fill="#FFFFFF" transform="translate(0,0)"/>
<path d="" fill="#FFFFFF" transform="translate(0,0)"/>
<path d="" fill="#FFFFFF" transform="translate(0,0)"/>
<path d="" fill="#FFFFFF" transform="translate(0,0)"/>
<path d="" fill="#FFFFFF" transform="translate(0,0)"/>
<path d="" fill="#FFFFFF" transform="translate(0,0)"/>
<path d="" fill="#FFFFFF" transform="translate(0,0)"/>
<path d="" fill="#FFFFFF" transform="translate(0,0)"/>
<path d="" fill="#FFFFFF" transform="translate(0,0)"/>
<path d="" fill="#FFFFFF" transform="translate(0,0)"/>
<path d="" fill="#FFFFFF" transform="translate(0,0)"/>
<path d="" fill="#FFFFFF" transform="translate(0,0)"/>
<path d="" fill="#FFFFFF" transform="translate(0,0)"/>
<path d="" fill="#FFFFFF" transform="translate(0,0)"/>
<path d="" fill="#FFFFFF" transform="translate(0,0)"/>
<path d="" fill="#FFFFFF" transform="translate(0,0)"/>
<path d="" fill="#FFFFFF" transform="translate(0,0)"/>
<path d="" fill="#FFFFFF" transform="translate(0,0)"/>
<path d="" fill="#FFFFFF" transform="translate(0,0)"/>
<path d="" fill="#FFFFFF" transform="translate(0,0)"/>
<path d="" fill="#FFFFFF" transform="translate(0,0)"/>
<path d="" fill="#FFFFFF" transform="translate(0,0)"/>
<path d="" fill="#FFFFFF" transform="translate(0,0)"/>
<path d="" fill="#FFFFFF" transform="translate(0,0)"/>
</svg>
